<?xml version="1.0" standalone="no"?>
<!DOCTYPE svg PUBLIC "-//W3C//DTD SVG 20010904//EN"
 "http://www.w3.org/TR/2001/REC-SVG-20010904/DTD/svg10.dtd">
<svg version="1.0" xmlns="http://www.w3.org/2000/svg"
 width="1280.000000pt" height="211.000000pt" viewBox="0 0 1280.000000 211.000000"
 preserveAspectRatio="xMidYMid meet">

<g transform="translate(0.000000,211.000000) scale(0.100000,-0.100000)"
fill="#000000" stroke="none">
<path d="M195 2059 c-38 -5 -97 -17 -130 -27 l-60 -18 -3 -1007 -2 -1007 6400
0 6400 0 0 711 0 710 -37 16 c-101 42 -468 96 -653 96 -191 0 -296 -27 -665
-173 -289 -113 -396 -149 -590 -195 -392 -94 -647 -120 -1325 -135 -256 -5
-601 -17 -766 -26 -253 -15 -327 -15 -458 -5 -438 33 -930 150 -1846 436 -684
214 -711 220 -995 219 -346 -1 -614 -57 -1222 -259 -380 -127 -467 -148 -733
-176 -145 -15 -641 -15 -825 0 -643 53 -1076 151 -1340 302 -83 47 -149 91
-558 372 -232 159 -360 195 -592 166z"/>
</g>
</svg>
