<svg xmlns="http://www.w3.org/2000/svg" version="1.1" xmlns:xlink="http://www.w3.org/1999/xlink" xmlns:svgjs="http://svgjs.com/svgjs" width="1500" height="1000" preserveAspectRatio="none" viewBox="0 0 1500 1000"><g mask="url(&quot;#SvgjsMask2590&quot;)" fill="none"><rect width="1500" height="1000" x="0" y="0" fill="url(#SvgjsRadialGradient2591)"></rect><use xlink:href="#SvgjsG2595" transform="translate(0, 0)" fill="rgba(255, 82, 0, 1)"></use><use xlink:href="#SvgjsG2595" transform="translate(0, 575)" fill="rgba(255, 82, 0, 1)"></use><use xlink:href="#SvgjsG2595" transform="translate(575, 0)" fill="rgba(255, 82, 0, 1)"></use><use xlink:href="#SvgjsG2595" transform="translate(575, 575)" fill="rgba(255, 82, 0, 1)"></use><use xlink:href="#SvgjsG2595" transform="translate(1150, 0)" fill="rgba(255, 82, 0, 1)"></use><use xlink:href="#SvgjsG2595" transform="translate(1150, 575)" fill="rgba(255, 82, 0, 1)"></use></g><defs><mask id="SvgjsMask2590"><rect width="1500" height="1000" fill="#ffffff"></rect></mask><radialGradient cx="50%" cy="50%" r="901.39" gradientUnits="userSpaceOnUse" id="SvgjsRadialGradient2591"><stop stop-color="rgba(255, 152, 40, 1)" offset="0"></stop><stop stop-color="rgba(255, 100, 4, 1)" offset="1"></stop></radialGradient><g id="SvgjsG2592"><path d="M16 14.068H0V2h16v12.068z m-14.107-1.117h12.214L10.088 8.837l-0.761 0.766c-0.33 0.329-0.801 0.518-1.297 0.517l-0.008 0c-0.498-0.002-0.971-0.195-1.299-0.529l-0.773-0.783-4.057 4.144zM1.116 3.916v8.233L5.165 8.014 1.116 3.916zM10.874 8.045l4.01 4.104V4.008l-4.01 4.037zM1.896 3.117l5.622 5.691c0.122 0.124 0.307 0.195 0.508 0.195h0.003c0.198 0 0.388-0.07 0.506-0.189L14.196 3.116H1.896z"></path></g><g id="SvgjsG2594"><path d="M14.88 3.372H1.12l0.267-2.071h13.226z"></path><path d="M10.246 1.397H5.754l0.4-0.997h3.692z m1.134 2.712V13.96h-0.964V4.109h-1.934V13.96h-0.964V4.109H5.452V13.96h-0.965V4.109H2.002l0.667 11.434h10.662l0.8-11.434z"></path></g><g id="SvgjsG2593"><path d="M2.752 7.711c0.292 0 0.539-0.241 0.539-0.533 0-0.293-0.247-0.534-0.539-0.534-0.289 0-0.539 0.241-0.539 0.534 0 0.292 0.249 0.533 0.539 0.533M0.016 8.499a0.062 0.062 0 0 1-0.016-0.04c0-0.03 0.028-0.054 0.058-0.055h1.705c0.082 0 0.149-0.066 0.149-0.148 0-0.064-0.028-0.107-0.091-0.143L0.279 7.379a0.097 0.097 0 0 1-0.048-0.086c0-0.026 0.008-0.05 0.028-0.071 0 0 4.046-3.576 13.009-0.11l2.461-1.2c0.024-0.012 0.052-0.02 0.078-0.02 0.107 0 0.193 0.086 0.193 0.193a0.208 0.208 0 0 1-0.028 0.098l-1.451 1.807 1.451 1.801c0.016 0.032 0.028 0.064 0.028 0.103 0 0.102-0.086 0.189-0.193 0.189-0.026 0-0.054-0.008-0.078-0.02l-2.461-1.2S4.701 12.264 0.016 8.499" fill-rule="evenodd"></path></g><g id="SvgjsG2595"><use xlink:href="#SvgjsG2592" transform="translate(0, 0) scale(2.5)" fill="rgba(255, 82, 0, 1)"></use><use xlink:href="#SvgjsG2593" transform="translate(0, 57.5) scale(2.5)" fill="rgba(255, 82, 0, 1)"></use><use xlink:href="#SvgjsG2594" transform="translate(0, 115) scale(2.5)" fill="rgba(255, 82, 0, 1)"></use><use xlink:href="#SvgjsG2592" transform="translate(0, 172.5) scale(2.5)" fill="rgba(255, 82, 0, 1)"></use><use xlink:href="#SvgjsG2594" transform="translate(0, 230) scale(2.5)" fill="rgba(255, 82, 0, 1)"></use><use xlink:href="#SvgjsG2594" transform="translate(0, 287.5) scale(2.5)" fill="rgba(255, 82, 0, 1)"></use><use xlink:href="#SvgjsG2592" transform="translate(0, 345) scale(2.5)" fill="rgba(255, 82, 0, 1)"></use><use xlink:href="#SvgjsG2592" transform="translate(0, 402.5) scale(2.5)" fill="rgba(255, 82, 0, 1)"></use><use xlink:href="#SvgjsG2594" transform="translate(0, 460) scale(2.5)" fill="rgba(255, 82, 0, 1)"></use><use xlink:href="#SvgjsG2593" transform="translate(0, 517.5) scale(2.5)" fill="rgba(255, 82, 0, 1)"></use><use xlink:href="#SvgjsG2594" transform="translate(57.5, 0) scale(2.5)" fill="rgba(255, 82, 0, 1)"></use><use xlink:href="#SvgjsG2593" transform="translate(57.5, 57.5) scale(2.5)" fill="rgba(255, 82, 0, 1)"></use><use xlink:href="#SvgjsG2592" transform="translate(57.5, 115) scale(2.5)" fill="rgba(255, 82, 0, 1)"></use><use xlink:href="#SvgjsG2594" transform="translate(57.5, 172.5) scale(2.5)" fill="rgba(255, 82, 0, 1)"></use><use xlink:href="#SvgjsG2592" transform="translate(57.5, 230) scale(2.5)" fill="rgba(255, 82, 0, 1)"></use><use xlink:href="#SvgjsG2594" transform="translate(57.5, 287.5) scale(2.5)" fill="rgba(255, 82, 0, 1)"></use><use xlink:href="#SvgjsG2594" transform="translate(57.5, 345) scale(2.5)" fill="rgba(255, 82, 0, 1)"></use><use xlink:href="#SvgjsG2592" transform="translate(57.5, 402.5) scale(2.5)" fill="rgba(255, 82, 0, 1)"></use><use xlink:href="#SvgjsG2594" transform="translate(57.5, 460) scale(2.5)" fill="rgba(255, 82, 0, 1)"></use><use xlink:href="#SvgjsG2593" transform="translate(57.5, 517.5) scale(2.5)" fill="rgba(255, 82, 0, 1)"></use><use xlink:href="#SvgjsG2592" transform="translate(115, 0) scale(2.5)" fill="rgba(255, 82, 0, 1)"></use><use xlink:href="#SvgjsG2592" transform="translate(115, 57.5) scale(2.5)" fill="rgba(255, 82, 0, 1)"></use><use xlink:href="#SvgjsG2594" transform="translate(115, 115) scale(2.5)" fill="rgba(255, 82, 0, 1)"></use><use xlink:href="#SvgjsG2594" transform="translate(115, 172.5) scale(2.5)" fill="rgba(255, 82, 0, 1)"></use><use xlink:href="#SvgjsG2592" transform="translate(115, 230) scale(2.5)" fill="rgba(255, 82, 0, 1)"></use><use xlink:href="#SvgjsG2594" transform="translate(115, 287.5) scale(2.5)" fill="rgba(255, 82, 0, 1)"></use><use xlink:href="#SvgjsG2593" transform="translate(115, 345) scale(2.5)" fill="rgba(255, 82, 0, 1)"></use><use xlink:href="#SvgjsG2593" transform="translate(115, 402.5) scale(2.5)" fill="rgba(255, 82, 0, 1)"></use><use xlink:href="#SvgjsG2593" transform="translate(115, 460) scale(2.5)" fill="rgba(255, 82, 0, 1)"></use><use xlink:href="#SvgjsG2593" transform="translate(115, 517.5) scale(2.5)" fill="rgba(255, 82, 0, 1)"></use><use xlink:href="#SvgjsG2592" transform="translate(172.5, 0) scale(2.5)" fill="rgba(255, 82, 0, 1)"></use><use xlink:href="#SvgjsG2594" transform="translate(172.5, 57.5) scale(2.5)" fill="rgba(255, 82, 0, 1)"></use><use xlink:href="#SvgjsG2593" transform="translate(172.5, 115) scale(2.5)" fill="rgba(255, 82, 0, 1)"></use><use xlink:href="#SvgjsG2592" transform="translate(172.5, 172.5) scale(2.5)" fill="rgba(255, 82, 0, 1)"></use><use xlink:href="#SvgjsG2593" transform="translate(172.5, 230) scale(2.5)" fill="rgba(255, 82, 0, 1)"></use><use xlink:href="#SvgjsG2593" transform="translate(172.5, 287.5) scale(2.5)" fill="rgba(255, 82, 0, 1)"></use><use xlink:href="#SvgjsG2593" transform="translate(172.5, 345) scale(2.5)" fill="rgba(255, 82, 0, 1)"></use><use xlink:href="#SvgjsG2594" transform="translate(172.5, 402.5) scale(2.5)" fill="rgba(255, 82, 0, 1)"></use><use xlink:href="#SvgjsG2593" transform="translate(172.5, 460) scale(2.5)" fill="rgba(255, 82, 0, 1)"></use><use xlink:href="#SvgjsG2594" transform="translate(172.5, 517.5) scale(2.5)" fill="rgba(255, 82, 0, 1)"></use><use xlink:href="#SvgjsG2594" transform="translate(230, 0) scale(2.5)" fill="rgba(255, 82, 0, 1)"></use><use xlink:href="#SvgjsG2592" transform="translate(230, 57.5) scale(2.5)" fill="rgba(255, 82, 0, 1)"></use><use xlink:href="#SvgjsG2593" transform="translate(230, 115) scale(2.5)" fill="rgba(255, 82, 0, 1)"></use><use xlink:href="#SvgjsG2593" transform="translate(230, 172.5) scale(2.5)" fill="rgba(255, 82, 0, 1)"></use><use xlink:href="#SvgjsG2592" transform="translate(230, 230) scale(2.5)" fill="rgba(255, 82, 0, 1)"></use><use xlink:href="#SvgjsG2594" transform="translate(230, 287.5) scale(2.5)" fill="rgba(255, 82, 0, 1)"></use><use xlink:href="#SvgjsG2592" transform="translate(230, 345) scale(2.5)" fill="rgba(255, 82, 0, 1)"></use><use xlink:href="#SvgjsG2593" transform="translate(230, 402.5) scale(2.5)" fill="rgba(255, 82, 0, 1)"></use><use xlink:href="#SvgjsG2592" transform="translate(230, 460) scale(2.5)" fill="rgba(255, 82, 0, 1)"></use><use xlink:href="#SvgjsG2594" transform="translate(230, 517.5) scale(2.5)" fill="rgba(255, 82, 0, 1)"></use><use xlink:href="#SvgjsG2594" transform="translate(287.5, 0) scale(2.5)" fill="rgba(255, 82, 0, 1)"></use><use xlink:href="#SvgjsG2592" transform="translate(287.5, 57.5) scale(2.5)" fill="rgba(255, 82, 0, 1)"></use><use xlink:href="#SvgjsG2593" transform="translate(287.5, 115) scale(2.5)" fill="rgba(255, 82, 0, 1)"></use><use xlink:href="#SvgjsG2592" transform="translate(287.5, 172.5) scale(2.5)" fill="rgba(255, 82, 0, 1)"></use><use xlink:href="#SvgjsG2593" transform="translate(287.5, 230) scale(2.5)" fill="rgba(255, 82, 0, 1)"></use><use xlink:href="#SvgjsG2592" transform="translate(287.5, 287.5) scale(2.5)" fill="rgba(255, 82, 0, 1)"></use><use xlink:href="#SvgjsG2594" transform="translate(287.5, 345) scale(2.5)" fill="rgba(255, 82, 0, 1)"></use><use xlink:href="#SvgjsG2594" transform="translate(287.5, 402.5) scale(2.5)" fill="rgba(255, 82, 0, 1)"></use><use xlink:href="#SvgjsG2593" transform="translate(287.5, 460) scale(2.5)" fill="rgba(255, 82, 0, 1)"></use><use xlink:href="#SvgjsG2592" transform="translate(287.5, 517.5) scale(2.5)" fill="rgba(255, 82, 0, 1)"></use><use xlink:href="#SvgjsG2593" transform="translate(345, 0) scale(2.5)" fill="rgba(255, 82, 0, 1)"></use><use xlink:href="#SvgjsG2593" transform="translate(345, 57.5) scale(2.5)" fill="rgba(255, 82, 0, 1)"></use><use xlink:href="#SvgjsG2592" transform="translate(345, 115) scale(2.5)" fill="rgba(255, 82, 0, 1)"></use><use xlink:href="#SvgjsG2593" transform="translate(345, 172.5) scale(2.5)" fill="rgba(255, 82, 0, 1)"></use><use xlink:href="#SvgjsG2592" transform="translate(345, 230) scale(2.5)" fill="rgba(255, 82, 0, 1)"></use><use xlink:href="#SvgjsG2593" transform="translate(345, 287.5) scale(2.5)" fill="rgba(255, 82, 0, 1)"></use><use xlink:href="#SvgjsG2592" transform="translate(345, 345) scale(2.5)" fill="rgba(255, 82, 0, 1)"></use><use xlink:href="#SvgjsG2594" transform="translate(345, 402.5) scale(2.5)" fill="rgba(255, 82, 0, 1)"></use><use xlink:href="#SvgjsG2592" transform="translate(345, 460) scale(2.5)" fill="rgba(255, 82, 0, 1)"></use><use xlink:href="#SvgjsG2594" transform="translate(345, 517.5) scale(2.5)" fill="rgba(255, 82, 0, 1)"></use><use xlink:href="#SvgjsG2592" transform="translate(402.5, 0) scale(2.5)" fill="rgba(255, 82, 0, 1)"></use><use xlink:href="#SvgjsG2593" transform="translate(402.5, 57.5) scale(2.5)" fill="rgba(255, 82, 0, 1)"></use><use xlink:href="#SvgjsG2593" transform="translate(402.5, 115) scale(2.5)" fill="rgba(255, 82, 0, 1)"></use><use xlink:href="#SvgjsG2593" transform="translate(402.5, 172.5) scale(2.5)" fill="rgba(255, 82, 0, 1)"></use><use xlink:href="#SvgjsG2593" transform="translate(402.5, 230) scale(2.5)" fill="rgba(255, 82, 0, 1)"></use><use xlink:href="#SvgjsG2594" transform="translate(402.5, 287.5) scale(2.5)" fill="rgba(255, 82, 0, 1)"></use><use xlink:href="#SvgjsG2593" transform="translate(402.5, 345) scale(2.5)" fill="rgba(255, 82, 0, 1)"></use><use xlink:href="#SvgjsG2594" transform="translate(402.5, 402.5) scale(2.5)" fill="rgba(255, 82, 0, 1)"></use><use xlink:href="#SvgjsG2592" transform="translate(402.5, 460) scale(2.5)" fill="rgba(255, 82, 0, 1)"></use><use xlink:href="#SvgjsG2592" transform="translate(402.5, 517.5) scale(2.5)" fill="rgba(255, 82, 0, 1)"></use><use xlink:href="#SvgjsG2593" transform="translate(460, 0) scale(2.5)" fill="rgba(255, 82, 0, 1)"></use><use xlink:href="#SvgjsG2593" transform="translate(460, 57.5) scale(2.5)" fill="rgba(255, 82, 0, 1)"></use><use xlink:href="#SvgjsG2594" transform="translate(460, 115) scale(2.5)" fill="rgba(255, 82, 0, 1)"></use><use xlink:href="#SvgjsG2593" transform="translate(460, 172.5) scale(2.5)" fill="rgba(255, 82, 0, 1)"></use><use xlink:href="#SvgjsG2592" transform="translate(460, 230) scale(2.5)" fill="rgba(255, 82, 0, 1)"></use><use xlink:href="#SvgjsG2594" transform="translate(460, 287.5) scale(2.5)" fill="rgba(255, 82, 0, 1)"></use><use xlink:href="#SvgjsG2593" transform="translate(460, 345) scale(2.5)" fill="rgba(255, 82, 0, 1)"></use><use xlink:href="#SvgjsG2594" transform="translate(460, 402.5) scale(2.5)" fill="rgba(255, 82, 0, 1)"></use><use xlink:href="#SvgjsG2593" transform="translate(460, 460) scale(2.5)" fill="rgba(255, 82, 0, 1)"></use><use xlink:href="#SvgjsG2593" transform="translate(460, 517.5) scale(2.5)" fill="rgba(255, 82, 0, 1)"></use><use xlink:href="#SvgjsG2593" transform="translate(517.5, 0) scale(2.5)" fill="rgba(255, 82, 0, 1)"></use><use xlink:href="#SvgjsG2594" transform="translate(517.5, 57.5) scale(2.5)" fill="rgba(255, 82, 0, 1)"></use><use xlink:href="#SvgjsG2594" transform="translate(517.5, 115) scale(2.5)" fill="rgba(255, 82, 0, 1)"></use><use xlink:href="#SvgjsG2593" transform="translate(517.5, 172.5) scale(2.5)" fill="rgba(255, 82, 0, 1)"></use><use xlink:href="#SvgjsG2594" transform="translate(517.5, 230) scale(2.5)" fill="rgba(255, 82, 0, 1)"></use><use xlink:href="#SvgjsG2593" transform="translate(517.5, 287.5) scale(2.5)" fill="rgba(255, 82, 0, 1)"></use><use xlink:href="#SvgjsG2592" transform="translate(517.5, 345) scale(2.5)" fill="rgba(255, 82, 0, 1)"></use><use xlink:href="#SvgjsG2592" transform="translate(517.5, 402.5) scale(2.5)" fill="rgba(255, 82, 0, 1)"></use><use xlink:href="#SvgjsG2592" transform="translate(517.5, 460) scale(2.5)" fill="rgba(255, 82, 0, 1)"></use><use xlink:href="#SvgjsG2592" transform="translate(517.5, 517.5) scale(2.5)" fill="rgba(255, 82, 0, 1)"></use></g></defs></svg>