<svg xmlns="http://www.w3.org/2000/svg" version="1.1" xmlns:xlink="http://www.w3.org/1999/xlink" xmlns:svgjs="http://svgjs.com/svgjs" width="1500" height="1000" preserveAspectRatio="none" viewBox="0 0 1500 1000"><g mask="url(&quot;#SvgjsMask1016&quot;)" fill="none"><rect width="1500" height="1000" x="0" y="0" fill="rgba(222, 49, 115, 1)"></rect><path d="M1625 1000L0 1000 L0 512.65Q113.61 551.26, 75 664.87Q72.12 536.99, 200 534.11Q226.35 485.46, 275 511.81Q330.5 492.31, 350 547.81Q427.31 550.12, 425 627.43Q416.68 544.11, 500 535.79Q555.29 466.08, 625 521.37Q686.21 507.58, 700 568.78Q746.52 540.3, 775 586.82Q848.52 535.34, 900 608.86Q902.84 536.7, 975 539.54Q1020.7 460.24, 1100 505.94Q1202.18 483.12, 1225 585.3Q1231.26 516.55, 1300 522.81Q1356.3 454.11, 1425 510.41Q1481.45 491.87, 1500 548.32Q1585.26 508.58, 1625 593.84z" fill="rgba(220, 74, 122, 1)"></path><path d="M1575 1000L0 1000 L0 739.49Q-13.1 651.39, 75 638.3Q131.95 570.25, 200 627.2Q296.86 599.06, 325 695.92Q373.4 619.32, 450 667.71Q541.51 634.23, 575 725.74Q636.85 712.59, 650 774.44Q696.27 745.71, 725 791.98Q746.59 738.57, 800 760.16Q847.36 682.51, 925 729.87Q994.73 674.6, 1050 744.32Q1078.81 648.13, 1175 676.94Q1190.51 617.46, 1250 632.97Q1321.4 579.38, 1375 650.78Q1477.13 627.91, 1500 730.04Q1557.45 712.5, 1575 769.95z" fill="rgba(255, 118, 173, 1)"></path><path d="M1600 1000L0 1000 L0 815.18Q98.53 788.71, 125 887.24Q127.21 764.45, 250 766.66Q305.39 697.05, 375 752.44Q464.7 717.14, 500 806.85Q528.14 760, 575 788.14Q636.97 775.11, 650 837.08Q650.39 762.47, 725 762.86Q756.68 719.54, 800 751.21Q906.54 732.75, 925 839.3Q953.12 792.42, 1000 820.54Q1029.91 725.45, 1125 755.37Q1168.64 724.01, 1200 767.65Q1271.53 764.18, 1275 835.72Q1291.98 777.7, 1350 794.68Q1425.12 744.79, 1475 819.91Q1572.04 791.95, 1600 888.99z" fill="rgba(255, 153, 192, 1)"></path><path d="M1550 1000L0 1000 L0 981.95Q24.42 881.38, 125 905.8Q194.1 849.89, 250 918.99Q293.02 887.01, 325 930.03Q447.36 927.38, 450 1049.74Q470.14 994.88, 525 1015.02Q515.55 930.57, 600 921.11Q620.91 867.02, 675 887.93Q746.72 834.65, 800 906.37Q860.88 892.25, 875 953.13Q944.96 948.09, 950 1018.04Q968.19 911.23, 1075 929.43Q1090.22 869.64, 1150 884.86Q1195.63 855.49, 1225 901.12Q1326.92 878.04, 1350 979.96Q1398.59 953.55, 1425 1002.13Q1442.06 894.18, 1550 911.24z" fill="white"></path></g><defs><mask id="SvgjsMask1016"><rect width="1500" height="1000" fill="#ffffff"></rect></mask></defs></svg>