<?xml version="1.0" encoding="utf-8"?>
<!-- Generator: Adobe Illustrator 26.3.1, SVG Export Plug-In . SVG Version: 6.00 Build 0)  -->
<svg version="1.1" id="Capa_1" xmlns="http://www.w3.org/2000/svg" xmlns:xlink="http://www.w3.org/1999/xlink" x="0px" y="0px"
	 viewBox="0 0 595.28 841.89" style="enable-background:new 0 0 595.28 841.89;" xml:space="preserve">
<style type="text/css">
	.st0{fill:#EE9324;}
</style>
<polygon class="st0" points="302.98,373.95 309.63,247.04 308.3,374.12 322.9,247.88 313.59,374.62 336.1,249.55 318.85,375.45 
	349.16,252.04 324.04,376.61 362.04,255.34 329.15,378.1 374.69,259.45 334.15,379.9 387.05,264.35 339.03,382.01 399.09,270.01 
	343.77,384.43 410.74,276.42 348.35,387.13 421.97,283.54 352.75,390.12 432.73,291.36 356.96,393.38 442.97,299.84 360.95,396.9 
	452.67,308.94 364.71,400.66 461.77,318.64 368.22,404.65 470.25,328.88 371.49,408.86 478.06,339.64 374.48,413.26 485.19,350.87 
	377.18,417.83 491.6,362.52 379.6,422.57 497.26,374.56 381.71,427.46 502.15,386.92 383.51,432.46 506.26,399.57 385,437.57 
	509.57,412.45 386.16,442.76 512.06,425.51 386.99,448.01 513.73,438.71 387.49,453.31 514.57,451.98 387.66,458.63 514.57,465.28 
	387.49,463.94 513.73,478.55 386.99,469.24 512.06,491.74 386.16,474.49 509.57,504.81 385,479.69 506.26,517.69 383.51,484.79 
	502.15,530.33 381.71,489.8 497.26,542.7 379.6,494.68 491.6,554.73 377.18,499.42 485.19,566.39 374.48,504 478.06,577.61 
	371.49,508.4 470.25,588.37 368.22,512.6 461.77,598.62 364.71,516.59 452.67,608.31 360.95,520.35 442.97,617.42 356.96,523.87 
	432.73,625.89 352.75,527.13 421.97,633.71 348.35,530.12 410.74,640.84 343.77,532.83 399.09,647.24 339.03,535.24 387.05,652.91 
	334.15,537.36 374.69,657.8 329.15,539.16 362.04,661.91 324.04,540.64 349.16,665.22 318.85,541.8 336.1,667.71 313.59,542.64 
	322.9,669.38 308.3,543.14 309.63,670.21 302.98,543.3 296.33,670.21 297.66,543.14 283.06,669.38 292.37,542.64 269.87,667.71 
	287.11,541.8 256.8,665.22 281.92,540.64 243.92,661.91 276.82,539.16 231.27,657.8 271.81,537.36 218.91,652.91 266.93,535.24 
	206.88,647.24 262.19,532.83 195.22,640.84 257.61,530.12 183.99,633.71 253.21,527.13 173.24,625.89 249.01,523.87 162.99,617.42 
	245.02,520.35 153.29,608.31 241.26,516.59 144.19,598.62 237.74,512.6 135.71,588.37 234.48,508.4 127.9,577.61 231.49,504 
	120.77,566.39 228.78,499.42 114.37,554.73 226.36,494.68 108.7,542.7 224.25,489.8 103.81,530.33 222.45,484.79 99.7,517.69 
	220.97,479.69 96.39,504.81 219.81,474.49 93.9,491.74 218.97,469.24 92.23,478.55 218.47,463.94 91.4,465.28 218.31,458.63 
	91.4,451.98 218.47,453.31 92.23,438.71 218.97,448.01 93.9,425.51 219.81,442.76 96.39,412.45 220.97,437.57 99.7,399.57 
	222.45,432.46 103.81,386.92 224.25,427.46 108.7,374.56 226.36,422.57 114.37,362.52 228.78,417.83 120.77,350.87 231.49,413.26 
	127.9,339.64 234.48,408.86 135.71,328.88 237.74,404.65 144.19,318.64 241.26,400.66 153.29,308.94 245.02,396.9 162.99,299.84 
	249.01,393.38 173.24,291.36 253.21,390.12 183.99,283.54 257.61,387.13 195.22,276.42 262.19,384.43 206.88,270.01 266.93,382.01 
	218.91,264.35 271.81,379.9 231.27,259.45 276.82,378.1 243.92,255.34 281.92,376.61 256.8,252.04 287.11,375.45 269.87,249.55 
	292.37,374.62 283.06,247.88 297.66,374.12 296.33,247.04 "/>
</svg>
