<?xml version="1.0" standalone="no"?>
<!DOCTYPE svg PUBLIC "-//W3C//DTD SVG 20010904//EN"
 "http://www.w3.org/TR/2001/REC-SVG-20010904/DTD/svg10.dtd">
<svg version="1.0" xmlns="http://www.w3.org/2000/svg"
 width="3847.000000pt" height="2000.000000pt" viewBox="0 0 3847.000000 2000.000000"
 preserveAspectRatio="xMidYMid meet">

<g transform="translate(0.000000,2000.000000) scale(0.100000,-0.100000)"
fill="#000000" stroke="none">
<path d="M19050 18204 c-790 -68 -1433 -247 -2145 -599 -488 -241 -780 -440
-1075 -735 -291 -290 -494 -579 -690 -982 -98 -204 -144 -327 -190 -511 -54
-222 -50 -289 21 -331 71 -42 232 -42 2009 4 1462 38 1913 43 3085 36 622 -3
1357 -11 1635 -16 278 -5 836 -12 1240 -15 703 -6 739 -6 838 13 57 11 105 21
107 24 9 9 -66 304 -113 446 -198 593 -527 1067 -1058 1522 -287 247 -573 433
-927 605 -541 262 -1202 449 -1842 520 -142 16 -774 29 -895 19z m2516 -1033
c180 -82 284 -353 271 -705 -8 -218 -47 -375 -139 -565 -65 -133 -153 -228
-237 -256 -69 -23 -162 -15 -237 19 -188 86 -304 384 -291 750 11 335 118 597
287 706 105 68 260 90 346 51z m-3851 -48 c94 -49 191 -198 229 -353 72 -299
27 -644 -121 -933 -56 -109 -126 -187 -199 -223 -49 -24 -63 -26 -133 -22
-175 10 -299 128 -370 353 -43 133 -55 223 -55 385 1 432 167 743 431 810 61
15 172 6 218 -17z"/>
<path d="M27825 14664 c-277 -31 -355 -41 -362 -48 -4 -4 -7 -71 -7 -149 -1
-162 14 -214 75 -259 69 -51 114 -57 499 -68 286 -8 627 -27 846 -45 l71 -6 7
-162 c3 -89 17 -517 31 -952 50 -1570 75 -2254 115 -3140 21 -470 32 -756 55
-1440 34 -1000 67 -1583 125 -2175 34 -345 83 -720 97 -743 8 -14 231 1 296
20 105 30 155 99 177 238 8 50 10 1088 7 3555 -3 3042 -6 3521 -20 3770 -32
581 -40 812 -29 884 6 37 12 70 14 71 2 2 419 -28 927 -67 620 -47 930 -67
940 -61 22 14 106 203 127 288 23 87 23 212 1 287 -19 64 -2 56 -188 87 -249
43 -848 76 -1824 101 -1261 33 -1782 37 -1980 14z"/>
<path d="M22895 14020 c-271 -20 -472 -62 -600 -125 -81 -40 -166 -120 -191
-180 -17 -42 -18 -47 -89 -1115 -104 -1565 -160 -2626 -195 -3680 -18 -568
-32 -1453 -27 -1765 4 -306 5 -312 39 -475 l34 -165 65 -6 c137 -14 370 -10
431 7 71 20 139 77 172 143 62 122 66 189 97 1476 11 490 26 991 32 1115 l12
225 668 3 667 2 0 -257 c1 -735 21 -2679 30 -2888 13 -311 38 -716 50 -830 13
-117 52 -201 111 -239 81 -54 166 -80 264 -80 83 -1 96 2 157 32 36 18 82 51
103 73 45 50 91 145 104 215 17 88 24 1536 12 2349 -20 1348 -43 1963 -126
3380 -54 914 -77 1354 -110 2031 -28 582 -34 631 -93 694 -56 58 -82 62 -415
58 -161 -2 -470 0 -687 4 -217 4 -449 3 -515 -2z m1115 -2275 l0 -1665 -645 0
-645 0 0 1630 0 1630 38 1 c20 0 294 15 607 33 314 19 587 34 608 35 l37 1 0
-1665z"/>
<path d="M25666 13944 c-20 -102 -26 -195 -38 -579 -16 -536 -16 -2029 0
-2645 45 -1690 52 -2310 43 -3745 -5 -722 -2 -796 40 -1042 61 -364 157 -403
674 -273 105 26 303 80 440 118 138 39 313 87 390 106 77 20 161 42 186 50
l46 14 6 -108 c11 -180 47 -321 94 -363 53 -46 334 -69 425 -34 60 23 118 88
143 159 18 50 19 118 26 1238 4 652 14 1572 23 2045 26 1403 38 2462 39 3455
2 874 1 938 -16 986 -24 69 -76 127 -145 161 -54 26 -65 28 -187 28 -116 0
-135 -2 -172 -22 -57 -31 -91 -79 -102 -144 -35 -198 -48 -904 -56 -2834 -6
-1706 -25 -3671 -35 -3699 -5 -14 -87 -47 -336 -133 -344 -119 -794 -273 -798
-273 -2 0 -6 70 -10 155 -3 86 -11 199 -16 253 -25 244 -28 420 -20 1432 5
586 10 2008 11 3160 2 1964 1 2103 -15 2220 -21 144 -43 203 -94 253 -72 70
-112 80 -338 85 l-202 4 -6 -28z"/>
<path d="M6270 13899 c-486 -34 -1009 -103 -1147 -151 -130 -45 -205 -136
-237 -286 -24 -114 -129 -1111 -160 -1527 -39 -503 -41 -659 -41 -3220 0
-1991 3 -2524 13 -2620 16 -148 98 -688 111 -733 27 -93 121 -194 224 -243 63
-29 516 -169 697 -214 241 -61 425 -79 729 -72 258 6 343 19 417 62 90 53 120
122 163 373 48 277 67 419 112 832 14 124 4 388 -20 568 -16 119 -24 150 -46
183 -35 54 -90 78 -177 79 -78 0 -112 -11 -151 -48 -44 -41 -54 -69 -83 -219
-22 -116 -26 -172 -29 -353 -3 -194 -42 -849 -51 -859 -2 -2 -281 34 -619 80
-482 66 -616 87 -621 99 -3 8 -9 179 -14 380 -26 1174 79 4773 190 6505 22
339 57 716 68 727 7 7 1354 89 1360 83 2 -2 -8 -115 -22 -252 -14 -136 -30
-349 -36 -473 -6 -124 -15 -283 -20 -355 -6 -71 -12 -218 -13 -325 -2 -181 0
-198 19 -241 75 -161 308 -150 415 20 44 69 78 188 95 335 30 267 46 378 94
661 78 460 110 731 110 929 0 96 -3 118 -22 156 -30 58 -100 95 -213 111 -101
14 -926 20 -1095 8z"/>
<path d="M12390 13839 c-176 -15 -643 -87 -699 -108 -111 -42 -200 -120 -252
-222 -74 -145 -111 -549 -159 -1709 -34 -823 -41 -935 -95 -1585 -100 -1200
-132 -1884 -122 -2675 6 -447 14 -656 37 -950 6 -69 17 -303 25 -520 21 -543
34 -669 81 -761 46 -93 114 -129 255 -136 157 -9 272 10 429 72 219 85 725
311 1117 499 111 53 204 96 207 96 3 0 6 -53 6 -117 0 -152 16 -285 39 -339
19 -41 21 -43 78 -50 160 -22 256 -2 299 63 33 50 57 260 99 858 13 198 27
376 30 395 13 89 35 386 45 590 13 286 24 402 61 680 56 413 43 440 -208 440
-204 0 -956 -73 -1107 -107 -129 -29 -165 -84 -187 -293 -10 -88 -10 -114 1
-141 l14 -32 85 6 c47 4 210 20 361 36 151 17 311 33 356 37 l81 7 6 -29 c4
-16 12 -95 19 -176 19 -241 -12 -603 -83 -948 -49 -238 -30 -207 -185 -300
-317 -190 -755 -394 -1171 -546 -93 -34 -93 -34 -93 -11 0 12 9 306 20 652 52
1666 72 2003 220 3815 33 399 73 905 90 1125 59 778 108 1157 205 1610 47 217
53 235 73 235 9 0 272 27 585 58 l567 58 0 -146 c0 -81 -22 -464 -50 -853 -27
-389 -50 -726 -50 -749 0 -206 175 -285 397 -182 66 31 126 91 157 159 32 66
42 123 172 980 95 632 105 710 101 800 -6 126 -26 181 -89 250 -57 62 -128
100 -226 120 -199 41 -1221 70 -1542 44z"/>
<path d="M15550 13833 c-251 -18 -316 -77 -385 -348 -48 -188 -51 -213 -139
-1145 -159 -1665 -258 -2934 -286 -3661 -8 -213 -6 -428 10 -1090 38 -1553 50
-1885 74 -1964 28 -90 93 -136 231 -160 159 -27 198 -23 596 69 798 185 964
226 1025 255 108 50 174 136 208 268 24 91 111 1024 151 1618 41 615 54 1019
65 2065 12 1134 12 1103 -1 1094 -8 -5 -9 50 -5 197 3 112 8 326 11 474 5 274
9 367 45 1105 45 919 44 1017 -3 1110 -32 63 -91 97 -187 110 -68 8 -1297 11
-1410 3z m975 -610 c-3 -71 -26 -470 -51 -888 -55 -927 -63 -1265 -64 -2535 0
-1193 -10 -1725 -62 -3210 l-11 -346 -450 -52 c-247 -29 -451 -51 -452 -50
-11 12 -25 526 -25 889 0 286 -6 519 -15 654 -28 406 -21 891 31 1915 13 278
29 690 34 915 17 740 39 1134 110 1985 25 294 60 774 60 818 l0 32 451 0 451
0 -7 -127z"/>
<path d="M18385 13823 c-102 -14 -155 -49 -187 -122 -28 -67 -101 -575 -128
-901 -21 -248 -192 -3090 -250 -4135 -16 -302 -37 -680 -46 -840 -20 -370 -30
-1630 -15 -1930 11 -216 27 -321 76 -481 31 -101 69 -154 146 -204 130 -84
272 -112 364 -71 63 28 83 46 106 96 24 51 24 93 2 717 -16 471 -16 524 1
1020 54 1626 186 4997 198 5042 l9 38 30 -28 c40 -38 53 -79 100 -319 230
-1184 660 -2817 1108 -4210 201 -627 633 -1895 672 -1973 47 -97 129 -186 205
-225 l50 -25 65 27 c162 68 262 179 300 331 16 66 17 179 1 450 -7 113 -17
372 -22 575 -6 204 -20 591 -30 860 -38 955 -49 1244 -61 1600 -15 445 -17
1485 -5 2230 7 456 6 655 -8 1070 -19 583 -27 701 -62 910 -33 199 -39 219
-81 266 -43 47 -107 69 -202 69 -85 0 -134 -14 -175 -51 -52 -45 -65 -84 -81
-241 -16 -163 -20 -565 -36 -3363 -6 -1001 -14 -1847 -17 -1880 l-7 -59 -42
64 c-23 36 -53 94 -67 130 -29 74 1 -34 -747 2660 -723 2600 -748 2688 -770
2732 -67 131 -215 195 -394 171z"/>
<path d="M8532 13659 c-89 -11 -172 -37 -208 -64 -27 -20 -33 -36 -52 -122
-12 -54 -24 -120 -27 -148 -7 -60 -162 -2713 -205 -3485 -63 -1151 -74 -1607
-67 -2610 10 -1246 27 -1448 139 -1574 60 -69 124 -98 228 -104 82 -5 1020 21
1345 37 156 7 163 9 222 40 82 44 175 142 214 224 16 36 37 103 45 149 20 118
108 1243 139 1798 11 182 45 1060 65 1655 27 802 38 1072 55 1370 8 138 17
295 20 350 3 55 17 499 32 986 25 845 25 889 9 962 -23 102 -66 185 -135 259
-70 77 -156 133 -241 158 -127 38 -485 88 -813 115 -200 16 -655 19 -765 4z
m878 -634 c261 -14 499 -28 529 -31 l53 -6 -6 -96 c-4 -54 -22 -428 -41 -832
-20 -404 -49 -937 -65 -1185 -16 -247 -41 -664 -55 -925 -26 -480 -56 -999
-119 -2030 -19 -311 -49 -833 -66 -1160 -18 -327 -33 -604 -36 -615 -3 -20
-28 -24 -426 -69 -233 -26 -436 -51 -452 -54 l-29 -5 6 1334 c8 1550 13 1780
72 3194 13 325 33 964 45 1420 11 457 23 889 26 962 l6 132 42 -4 c22 -3 255
-16 516 -30z"/>
<path d="M33059 13420 c-325 -29 -1835 -205 -1891 -220 -56 -16 -181 -104
-238 -168 -59 -65 -113 -170 -134 -257 -15 -59 -61 -518 -91 -905 -23 -285
-30 -700 -16 -940 21 -368 77 -891 107 -990 42 -143 114 -208 271 -247 62 -16
143 -17 912 -14 l844 3 -6 -673 c-6 -655 -11 -843 -42 -1439 -16 -301 -76
-1304 -79 -1307 0 0 -250 42 -553 95 l-553 97 0 33 c0 18 7 54 15 80 19 63 39
672 26 827 -18 233 -55 246 -484 161 -92 -18 -169 -35 -171 -37 -3 -4 -157
-1698 -156 -1725 0 -6 33 -21 73 -32 59 -18 117 -23 317 -32 462 -19 621 -34
1250 -122 525 -74 646 -70 790 22 87 56 148 142 184 259 19 64 20 101 27 1301
4 786 12 1419 23 1740 9 278 17 647 19 820 2 286 0 320 -17 369 -23 68 -73
123 -134 149 -92 40 -175 43 -976 40 -420 -2 -768 0 -772 5 -8 8 -65 2409 -57
2417 4 5 1515 119 1520 115 6 -3 24 -317 33 -570 5 -148 16 -313 24 -366 17
-105 45 -230 55 -242 6 -6 450 40 459 48 5 4 108 935 132 1195 13 134 19 247
15 280 -17 135 -83 183 -298 214 -137 20 -311 26 -428 16z"/>
<path d="M19547 4459 c-58 -9 -114 -49 -133 -94 -20 -49 -32 -137 -49 -375
-24 -337 -51 -457 -109 -496 -21 -13 -40 -16 -90 -11 -120 11 -135 29 -143
181 -4 74 0 141 16 251 42 297 21 410 -86 460 -51 24 -167 26 -209 3 -25 -14
-39 -15 -65 -7 -48 14 -157 14 -206 -1 -53 -16 -92 -56 -104 -106 -12 -55 -11
-331 3 -516 12 -165 4 -253 -27 -278 -8 -7 -73 -14 -157 -17 -235 -10 -239 -4
-220 311 24 391 14 566 -35 608 -29 24 -91 37 -204 42 -58 3 -135 13 -172 22
-63 17 -67 17 -107 -1 -23 -10 -58 -39 -78 -63 -34 -42 -36 -47 -35 -120 0
-42 8 -169 18 -282 19 -221 16 -304 -15 -342 -17 -21 -26 -23 -108 -23 -75 1
-97 5 -137 26 -95 48 -107 93 -80 306 36 287 -8 381 -184 391 -95 5 -240 -12
-287 -34 -63 -30 -69 -54 -69 -274 0 -181 -2 -198 -22 -240 -27 -54 -65 -79
-130 -87 -73 -8 -118 15 -146 74 -20 44 -22 63 -22 229 0 139 -3 185 -14 198
-7 9 -39 24 -70 32 -48 14 -88 16 -281 10 -598 -18 -853 -66 -875 -165 -27
-126 229 -588 550 -991 191 -239 315 -360 489 -479 454 -307 1172 -603 1772
-730 352 -75 614 -96 1084 -87 584 10 1085 55 1597 141 516 88 901 199 1208
350 129 63 180 96 361 233 611 461 1175 940 1389 1179 62 69 96 120 138 201
123 242 98 336 -103 400 -166 53 -452 89 -620 79 -180 -11 -179 -11 -190 -279
-9 -219 -22 -285 -65 -336 -31 -37 -71 -45 -132 -27 -86 25 -141 68 -170 132
-26 56 -26 58 -18 207 11 212 11 217 -21 245 -27 22 -33 23 -124 17 -71 -4
-107 -2 -144 9 -62 19 -129 19 -187 1 -24 -8 -66 -20 -92 -27 -107 -27 -131
-89 -152 -396 -15 -230 -26 -276 -78 -319 -30 -25 -36 -26 -112 -21 -199 12
-224 86 -158 467 38 224 25 301 -60 348 -49 26 -199 24 -251 -4 l-40 -20 -55
23 c-109 44 -185 24 -241 -63 -42 -67 -60 -161 -70 -383 -12 -264 -33 -338
-103 -381 -26 -16 -51 -20 -132 -20 -118 0 -160 16 -187 70 -30 60 -26 123 27
405 40 216 35 329 -17 373 -15 12 -290 67 -368 74 -25 2 -67 1 -93 -3z"/>
</g>
</svg>
